<?xml version="1.0" encoding="UTF-8"?>
<svg id="Layer_1" data-name="Layer 1" xmlns="http://www.w3.org/2000/svg" viewBox="0 0 542.53 878.25">
  <defs>
    <style>
      .cls-1, .cls-2 {
        fill: #fff;
      }

      .cls-3 {
        fill: #881c1c;
        stroke: #881c1c;
        stroke-width: 5px;
      }

      .cls-3, .cls-4, .cls-2 {
        stroke-miterlimit: 10;
      }

      .cls-4 {
        fill: #881c1c;
        stroke-width: 10px;
      }

      .cls-4, .cls-2 {
        stroke: #fff;
      }

      .cls-2 {
        stroke-width: 6px;
      }
    </style>
  </defs>
  <rect class="cls-3" x="98.8" y="619.1" width="345.52" height="256.14"/>
  <path class="cls-2" d="M270.95,619.1H118.75c-11.18,0-20.25,9.06-20.25,20.25v235.9h-22.56c-4.7,0-8.51-3.81-8.51-8.51v-285.8c0-2.84,1.41-5.48,3.77-7.06l200.06-122.07,200.06,122.07c2.35,1.58,3.77,4.23,3.77,7.06v285.8c0,4.7-3.81,8.51-8.51,8.51h-22.56v-235.9c0-11.18-9.06-20.25-20.25-20.25h-152.83Z"/>
  <g>
    <path class="cls-1" d="M211.09,761.18v20.55c0,5.24-4.25,9.49-9.49,9.49h-2.26c-5.24,0-9.49-4.25-9.49-9.49v-20.55h-42.34v90.87h105.91v-90.87h-42.34Z"/>
    <path class="cls-1" d="M352.67,761.18v20.55c0,5.24-4.25,9.49-9.49,9.49h-2.26c-5.24,0-9.49-4.25-9.49-9.49v-20.55h-42.34v90.87h105.91v-90.87h-42.34Z"/>
    <path class="cls-1" d="M281.88,652.43v20.55c0,5.24-4.25,9.49-9.49,9.49h-2.26c-5.24,0-9.49-4.25-9.49-9.49v-20.55h-42.34v90.87h105.91v-90.87h-42.34Z"/>
  </g>
  <g>
    <path class="cls-1" d="M455.6,153.31c-2.36,0-4.69.12-7,.31,0-.1,0-.2,0-.31,0-56.59-45.88-102.47-102.47-102.47-8.87,0-17.48,1.13-25.69,3.25C300.77,21.67,265.14,0,224.44,0c-58.78,0-106.98,45.21-111.79,102.75-.14,0-.28-.01-.43-.01C50.24,102.74,0,152.98,0,214.95s50.24,112.22,112.22,112.22h343.38c48.01,0,86.93-38.92,86.93-86.93s-38.92-86.93-86.93-86.93Z"/>
    <polygon class="cls-4" points="381.76 212.9 300.8 212.57 333.02 132.18 210.95 132.17 148.08 320.7 240.46 320.7 174.18 438.48 386.89 276.11 343.52 276.44 381.76 212.9"/>
  </g>
</svg>